<svg xmlns="http://www.w3.org/2000/svg" viewBox="0 0 260 60" role="img">
  <title>Awen — Data Assurance Platform</title>

  <g transform="translate(2, 4) scale(0.85)">
    <path d="M 4 52 L 24 8 L 30 8 L 14 52 Z" fill="#0abfbf" opacity="0.85"></path>
    <path d="M 56 52 L 36 8 L 42 8 L 58 52 Z" fill="#40d4d4" opacity="0.85"></path>
    <path d="M 8 52 Q 18 28 28 12 Q 31 7 33 5 Q 35 7 36 12 Q 40 26 36 42 Q 34 48 31 53 Z" fill="#0abfbf" opacity="0.78"></path>
    <path d="M 22 53 Q 28 32 33 18 Q 35 11 36 7 Q 38 11 39 18 Q 43 32 40 46 Q 38 52 35 55 Z" fill="#2DD4CC" opacity="0.9"></path>
    <path d="M 34 54 Q 36 36 37 22 Q 38 14 39 9 Q 40 14 41 22 Q 44 36 42 50 Q 41 55 39 57 Z" fill="#5BE3D4" opacity="0.9"></path>
    <rect x="16" y="32" width="28" height="4" rx="2" fill="#0ABFBF" opacity="0.95"></rect>
    <path d="M 31 6 L 33 0 L 35 6 Z" fill="#A5F3F0" opacity="1"></path>
  </g>

  <text x="68" y="30" font-family="&#39;Geist&#39;, &#39;DM Sans&#39;, system-ui, sans-serif" font-weight="700" font-size="22" letter-spacing="1.5" fill="#0ABFBF">AWEN</text>

  <text x="69" y="46" font-family="&#39;JetBrains Mono&#39;, monospace" font-weight="400" font-size="7.5" letter-spacing="1.4" fill="#9AB3C0">DATA ASSURANCE PLATFORM</text>
</svg>